<svg width="21" height="19" viewBox="0 0 21 19" fill="none" xmlns="http://www.w3.org/2000/svg">
<path d="M2.625 19C1.92881 19 1.26113 18.705 0.768845 18.1799C0.276562 17.6548 0 16.9426 0 16.2V12.2C4.44604e-09 11.8817 0.118526 11.5765 0.329505 11.3515C0.540483 11.1264 0.826631 11 1.125 11C1.42337 11 1.70952 11.1264 1.9205 11.3515C2.13147 11.5765 2.25 11.8817 2.25 12.2V16.2C2.25 16.4208 2.418 16.6 2.625 16.6H18.375C18.4745 16.6 18.5698 16.5579 18.6402 16.4828C18.7105 16.4078 18.75 16.3061 18.75 16.2V12.2C18.75 11.8817 18.8685 11.5765 19.0795 11.3515C19.2905 11.1264 19.5766 11 19.875 11C20.1734 11 20.4595 11.1264 20.6705 11.3515C20.8815 11.5765 21 11.8817 21 12.2V16.2C21 16.9426 20.7234 17.6548 20.2312 18.1799C19.7389 18.705 19.0712 19 18.375 19H2.625Z" fill="#93E3C0"/>
<path d="M15.6981 5.01164C15.7938 5.11218 15.8697 5.23154 15.9215 5.3629C15.9733 5.49427 16 5.63506 16 5.77725C16 5.91944 15.9733 6.06023 15.9215 6.19159C15.8697 6.32296 15.7938 6.44232 15.6981 6.54286C15.6024 6.6434 15.4888 6.72316 15.3637 6.77757C15.2387 6.83198 15.1046 6.85999 14.9693 6.85999C14.8339 6.85999 14.6999 6.83198 14.5748 6.77757C14.4498 6.72316 14.3361 6.6434 14.2404 6.54286L11.5314 3.69854V11.9166C11.5314 12.2039 11.4227 12.4795 11.2293 12.6827C11.0359 12.8859 10.7735 13 10.5 13C10.2265 13 9.96413 12.8859 9.77071 12.6827C9.57729 12.4795 9.46863 12.2039 9.46863 11.9166V3.69854L6.75956 6.54286C6.66385 6.6434 6.55022 6.72316 6.42517 6.77757C6.30012 6.83198 6.16609 6.85999 6.03073 6.85999C5.89537 6.85999 5.76134 6.83198 5.63629 6.77757C5.51123 6.72316 5.39761 6.6434 5.30189 6.54286C5.20618 6.44232 5.13026 6.32296 5.07846 6.19159C5.02666 6.06023 5 5.91944 5 5.77725C5 5.63506 5.02666 5.49427 5.07846 5.3629C5.13026 5.23154 5.20618 5.11218 5.30189 5.01164L9.77116 0.316848C9.96455 0.11396 10.2267 0 10.5 0C10.7733 0 11.0355 0.11396 11.2288 0.316848L15.6981 5.01164Z" fill="#93E3C0"/>
</svg>
